<svg width="32" height="32" viewBox="0 0 32 32" fill="none" xmlns="http://www.w3.org/2000/svg">
<path d="M21.3333 9.33337H21.3466" stroke="#09090B" stroke-width="2" stroke-linecap="round" stroke-linejoin="round"/>
<path d="M4.53335 24.0001H16C18.829 24.0001 21.5421 22.8762 23.5425 20.8759C25.5429 18.8755 26.6667 16.1624 26.6667 13.3334V9.33338C26.6697 8.19726 26.3098 7.08987 25.6395 6.17257C24.9692 5.25527 24.0234 4.576 22.9401 4.23373C21.8567 3.89147 20.6924 3.9041 19.6167 4.26978C18.5411 4.63546 17.6103 5.33509 16.96 6.26672L2.66669 26.6667" stroke="#09090B" stroke-width="2" stroke-linecap="round" stroke-linejoin="round"/>
<path d="M26.6667 9.33337L29.3334 10L26.6667 10.6667" stroke="#09090B" stroke-width="2" stroke-linecap="round" stroke-linejoin="round"/>
<path d="M13.3333 24V28" stroke="#09090B" stroke-width="2" stroke-linecap="round" stroke-linejoin="round"/>
<path d="M18.6667 23.6666V28" stroke="#09090B" stroke-width="2" stroke-linecap="round" stroke-linejoin="round"/>
<path d="M9.33331 24.0001C10.9775 24 12.5817 23.4933 13.9276 22.549C15.2736 21.6047 16.2959 20.2686 16.8554 18.7226C17.4149 17.1766 17.4845 15.4957 17.0547 13.9087C16.6249 12.3218 15.7166 10.9057 14.4533 9.85339" stroke="#09090B" stroke-width="2" stroke-linecap="round" stroke-linejoin="round"/>
</svg>
